<?xml version="1.0" standalone="no"?>
<svg viewBox="0 0 200 200" xmlns="http://www.w3.org/2000/svg">
  <path fill="#FFFFFF" d="M42.6,-67.6C50.9,-61,50.2,-41.8,54,-26.7C57.7,-11.5,65.9,-0.4,67.8,12.1C69.7,24.7,65.3,38.7,57.5,52.4C49.7,66.1,38.4,79.4,24.9,82.1C11.4,84.8,-4.4,76.9,-19.3,70.4C-34.2,63.9,-48,58.8,-60.7,49.6C-73.3,40.4,-84.7,27.1,-82.5,14.5C-80.3,1.8,-64.5,-10.2,-56.3,-24.7C-48.1,-39.2,-47.6,-56.2,-39.5,-62.8C-31.4,-69.4,-15.7,-65.6,0.8,-66.8C17.2,-68,34.4,-74.1,42.6,-67.6Z" transform="translate(100 100)" />
</svg>
